<svg viewBox="0 0 512 512" xml:space="preserve" xmlns="http://www.w3.org/2000/svg" enable-background="new 0 0 512 512"><path d="M141.93 319.21c-2.71 0-5.29-1.59-6.43-4.24-6.29-14.63-9.49-30.21-9.49-46.32 0-64.83 52.74-117.57 117.57-117.57 3.87 0 7 3.13 7 7s-3.13 7-7 7c-57.11 0-103.57 46.46-103.57 103.57 0 14.19 2.81 27.91 8.35 40.79a7.003 7.003 0 0 1-3.66 9.2c-.91.38-1.85.57-2.77.57zM243.58 386.22c-16.09 0-31.67-3.19-46.3-9.47a7.015 7.015 0 0 1-4.11-5.11c-.44-2.28.28-4.63 1.92-6.27l145.21-145.2a6.994 6.994 0 0 1 6.27-1.92c2.28.44 4.19 1.98 5.11 4.11 6.29 14.64 9.47 30.21 9.47 46.29 0 64.83-52.74 117.57-117.57 117.57zm-30.88-18.67c9.93 3.1 20.28 4.67 30.88 4.67 57.11 0 103.57-46.46 103.57-103.57 0-10.59-1.57-20.94-4.67-30.87L212.7 367.55z" fill="#ffffff" class="fill-1b3954"></path><path d="M103.25 357.88c-2.4 0-4.74-1.24-6.04-3.46a168.12 168.12 0 0 1-17.76-42.8l-29.78-3.44c-3.53-.41-6.2-3.4-6.2-6.95v-59.02c0-3.55 2.66-6.54 6.19-6.95l28.27-3.28c3.81-17.27 10.25-33.7 19.21-48.98l-18.63-23.52a6.994 6.994 0 0 1 .54-9.3l41.73-41.73a7.016 7.016 0 0 1 9.3-.54l22.31 17.68a167.886 167.886 0 0 1 48.22-21.08l3.44-29.78c.41-3.53 3.4-6.2 6.95-6.2h59.02c3.55 0 6.54 2.66 6.95 6.19l3.28 28.27c17.3 3.82 33.79 10.29 49.08 19.28 3.33 1.96 4.45 6.25 2.49 9.58s-6.25 4.45-9.58 2.49c-15.38-9.05-32.09-15.31-49.65-18.63a6.995 6.995 0 0 1-5.65-6.07l-3.15-27.12h-46.54l-3.28 28.42a7.004 7.004 0 0 1-5.39 6.02c-18.86 4.33-36.56 12.08-52.6 23.04a6.995 6.995 0 0 1-8.29-.29l-21.4-16.96-32.91 32.91 17.78 22.44a7 7 0 0 1 .45 8.06c-10.3 16.44-17.34 34.43-20.93 53.46a7.017 7.017 0 0 1-6.07 5.66l-27.12 3.15v46.54l28.42 3.28c2.94.34 5.36 2.5 6.02 5.39 3.52 15.35 9.37 30.04 17.37 43.67 1.96 3.33.84 7.62-2.49 9.58-1.13.67-2.35.99-3.56.99zM276.15 468.76h-59.02c-3.55 0-6.54-2.66-6.95-6.19l-3.28-28.27a168.33 168.33 0 0 1-49.07-19.27 7.02 7.02 0 0 1-3.4-5.15c-.27-2.15.46-4.3 1.99-5.84l38.66-38.67L378.97 181.5a6.99 6.99 0 0 1 5.84-1.99 7.02 7.02 0 0 1 5.15 3.4 168.835 168.835 0 0 1 17.75 42.79l29.78 3.44c3.53.41 6.2 3.4 6.2 6.95v59.02c0 3.55-2.66 6.54-6.19 6.95l-28.27 3.28a168.157 168.157 0 0 1-19.21 48.98l18.63 23.51a6.994 6.994 0 0 1-.54 9.3l-41.73 41.73a7.016 7.016 0 0 1-9.3.54l-22.31-17.68c-16.33 10.44-34.15 17.93-53.05 22.26-3.77.87-7.52-1.49-8.39-5.26-.87-3.77 1.49-7.52 5.26-8.39 18.86-4.33 36.56-12.08 52.6-23.04a6.995 6.995 0 0 1 8.29.29l21.4 16.96 32.91-32.91-17.78-22.44a7 7 0 0 1-.45-8.06c10.3-16.44 17.34-34.43 20.93-53.46.57-3.01 3.03-5.3 6.07-5.66l27.12-3.15v-46.54l-28.42-3.28a7.004 7.004 0 0 1-6.02-5.39A153.819 153.819 0 0 0 382.26 198L172.92 407.34c13.12 6.71 27.09 11.48 41.65 14.23 3.01.57 5.3 3.03 5.65 6.07l3.15 27.12h46.56c.65-3.61 4-6.13 7.69-5.71 3.84.44 6.59 3.92 6.15 7.76l-.67 5.75c-.41 3.53-3.4 6.2-6.95 6.2zM202.56 251.56" fill="#ffffff" class="fill-1b3954"></path><path d="M83.95 498.27c-9.78 0-19.25-1.97-28.15-5.86a7.014 7.014 0 0 1-3.62-9.22 7.001 7.001 0 0 1 9.22-3.61c7.12 3.11 14.71 4.69 22.55 4.69 31.13 0 56.45-25.32 56.45-56.45 0-1.49-.05-2.83-.16-4.11-.17-2.05.57-4.07 2.03-5.52l52.81-52.81 193.76-193.75a7.001 7.001 0 0 1 4.95-2.05h49.16l41.54-41.55.01-46.77-53.42 53.42a7.001 7.001 0 0 1-9.9 0l-43.6-43.62a7.007 7.007 0 0 1 0-9.9L431 27.74l-46.78.01-41.53 41.54-.01 49.17c0 1.86-.74 3.64-2.05 4.95L226.66 237.36a7.007 7.007 0 0 1-9.9 0 7.007 7.007 0 0 1 0-9.9l111.91-111.92.01-49.17c0-1.86.74-3.64 2.05-4.95l45.63-45.64a7.001 7.001 0 0 1 4.95-2.05l64.54-.01c1.86 0 3.64.74 4.95 2.05l1.02 1.02a7.007 7.007 0 0 1 0 9.9L392.41 86.1l33.71 33.71 59.41-59.42a7.001 7.001 0 0 1 4.95-2.05h.02c1.86 0 3.65.75 4.96 2.08l1.01 1.02a6.98 6.98 0 0 1 2.02 4.92l-.01 64.54c0 1.86-.74 3.64-2.05 4.95l-45.64 45.65a7.001 7.001 0 0 1-4.95 2.05h-49.16L154.37 425.88c.02.63.03 1.27.03 1.94 0 38.85-31.61 70.45-70.45 70.45z" fill="#e0e0e0" class="fill-16ade1"></path><path d="M40.02 478.74a7.043 7.043 0 0 1-2.68-.54c-.42-.17-.83-.39-1.2-.64-.39-.25-.75-.55-1.07-.87-.32-.32-.61-.68-.87-1.06-.25-.38-.47-.79-.64-1.21-.18-.42-.31-.86-.4-1.31-.09-.45-.14-.91-.14-1.37a7.043 7.043 0 0 1 .54-2.68c.17-.42.39-.83.64-1.2.26-.39.55-.75.87-1.07.32-.32.68-.61 1.07-.87.37-.25.78-.47 1.2-.64.43-.18.87-.31 1.31-.4.91-.18 1.84-.18 2.74 0 .45.09.89.22 1.31.4.42.17.83.39 1.21.64.38.26.74.55 1.06.87.32.32.62.68.87 1.07.25.37.47.78.64 1.2.18.43.31.87.4 1.31.1.46.14.92.14 1.37 0 .46-.04.92-.14 1.37-.09.45-.22.89-.4 1.31a6.818 6.818 0 0 1-1.51 2.27 6.818 6.818 0 0 1-2.27 1.51c-.42.18-.86.31-1.31.4-.45.09-.91.14-1.37.14z" fill="#ffffff" class="fill-1b3954"></path><path d="M26.26 461.26c-2.65 0-5.19-1.51-6.37-4.08-4.24-9.24-6.39-19.12-6.39-29.36 0-38.85 31.6-70.45 70.45-70.45.95 0 1.9.02 2.85.06l94.35-94.35a7.007 7.007 0 0 1 9.9 0 7.007 7.007 0 0 1 0 9.9l-96.59 96.59a7.015 7.015 0 0 1-5.59 2.02c-1.61-.15-3.26-.22-4.92-.22-31.13 0-56.45 25.32-56.45 56.45 0 8.21 1.72 16.12 5.12 23.52 1.61 3.51.07 7.67-3.44 9.28-.95.43-1.94.64-2.92.64z" fill="#e0e0e0" class="fill-16ade1"></path><path d="M83.95 462.12c-1.67 0-3.32-.12-4.92-.36-14.94-2.12-26.9-14.07-29.02-29.07-.23-1.54-.35-3.2-.35-4.87 0-18.91 15.39-34.3 34.3-34.3s34.3 15.39 34.3 34.3-15.4 34.3-34.31 34.3zm0-54.6c-11.19 0-20.3 9.11-20.3 20.3 0 .97.07 1.93.21 2.85 1.26 8.92 8.33 15.98 17.19 17.24.97.15 1.93.21 2.9.21 11.19 0 20.3-9.11 20.3-20.3s-9.11-20.3-20.3-20.3z" fill="#ffffff" class="fill-1b3954"></path><path d="M83.95 462.12c-1.67 0-3.32-.12-4.92-.36-14.94-2.12-26.9-14.07-29.02-29.07-.23-1.54-.35-3.2-.35-4.87 0-18.91 15.39-34.3 34.3-34.3s34.3 15.39 34.3 34.3-15.4 34.3-34.31 34.3zm0-54.6c-11.19 0-20.3 9.11-20.3 20.3 0 .97.07 1.93.21 2.85 1.26 8.92 8.33 15.98 17.19 17.24.97.15 1.93.21 2.9.21 11.19 0 20.3-9.11 20.3-20.3s-9.11-20.3-20.3-20.3z" fill="#ffffff" class="fill-1b3954"></path></svg>